<svg id="Grupo_334" data-name="Grupo 334" xmlns="http://www.w3.org/2000/svg" xmlns:xlink="http://www.w3.org/1999/xlink" width="79.128" height="28.728" viewBox="0 0 79.128 28.728">
  <defs>
    <clipPath id="clip-path">
      <rect id="Rectángulo_328" data-name="Rectángulo 328" width="79.128" height="28.728" fill="#fff"/>
    </clipPath>
  </defs>
  <g id="Grupo_333" data-name="Grupo 333" clip-path="url(#clip-path)">
    <path id="Trazado_406" data-name="Trazado 406" d="M141.811,20.826h-.18a8.183,8.183,0,0,0-8.442,8.09V39.547h.012a.342.342,0,0,0,.338.3h3.994a.342.342,0,0,0,.338-.3h.007v-.039l0-.006,0-.6V28.916h.013a3.858,3.858,0,0,1,7.66,0h.011V39.547h.009a.342.342,0,0,0,.337.3H149.9a.343.343,0,0,0,.337-.3h.013V28.916a8.184,8.184,0,0,0-8.443-8.09" transform="translate(-71.126 -11.122)" fill="#fff"/>
    <path id="Trazado_407" data-name="Trazado 407" d="M29.415,28.92a8.183,8.183,0,0,0-8.443-8.09h-.038a8.252,8.252,0,0,0-8.572,8.09v2.84a3.575,3.575,0,0,1-3.882,3.4H8.442a3.485,3.485,0,0,1-3.752-3.4V21.448H4.683V21.4a.348.348,0,0,0-.347-.348H.349A.346.346,0,0,0,0,21.4v.048H0V31.76a8.183,8.183,0,0,0,8.442,8.09H8.48a8.252,8.252,0,0,0,8.572-8.09V28.92a3.574,3.574,0,0,1,3.882-3.4h.038a3.485,3.485,0,0,1,3.752,3.4V39.232h.009a.342.342,0,0,0,.337.3h3.994a.343.343,0,0,0,.338-.3h.012Z" transform="translate(0 -11.124)" fill="#fff"/>
    <path id="Trazado_408" data-name="Trazado 408" d="M97.092,20.864a9.315,9.315,0,0,0-9.1,9.494,9.112,9.112,0,1,0,18.208,0,9.316,9.316,0,0,0-9.1-9.494m0,14.206a4.72,4.72,0,1,1,4.431-4.712,4.583,4.583,0,0,1-4.431,4.712" transform="translate(-46.988 -11.142)" fill="#fff"/>
    <path id="Trazado_409" data-name="Trazado 409" d="M75.541,21.013H71.349a.365.365,0,0,0-.365.365V39.585a.365.365,0,0,0,.365.364h4.192a.365.365,0,0,0,.364-.364V21.378a.365.365,0,0,0-.364-.365" transform="translate(-37.907 -11.222)" fill="#fff"/>
    <path id="Trazado_410" data-name="Trazado 410" d="M.388,6.83A.334.334,0,0,1,.058,6.5V.622a.334.334,0,0,1,.33-.33H2.04c1.37,0,1.981.68,1.981,1.729a1.345,1.345,0,0,1-.942,1.321A1.549,1.549,0,0,1,4.322,4.964,1.778,1.778,0,0,1,2.331,6.83Zm.33-3.682H2.03c.864,0,1.321-.447,1.321-1.127,0-.7-.418-1.127-1.321-1.127H.718Zm0,3.079h1.6a1.171,1.171,0,0,0,1.33-1.263,1.186,1.186,0,0,0-1.33-1.253H.718Z" transform="translate(-0.031 -0.156)" fill="#fff"/>
    <path id="Trazado_411" data-name="Trazado 411" d="M11.819,4.808l-.71,1.777a.333.333,0,0,1-.651-.1.4.4,0,0,1,.029-.146L12.857.349a.322.322,0,0,1,.311-.223.342.342,0,0,1,.32.223l2.371,5.992a.475.475,0,0,1,.028.146.34.34,0,0,1-.66.107l-.7-1.787Zm1.35-3.574L12.022,4.205h2.3Z" transform="translate(-5.585 -0.067)" fill="#fff"/>
    <path id="Trazado_412" data-name="Trazado 412" d="M28.8.446V6.487a.333.333,0,0,1-.6.193L24.774,1.523V6.5a.321.321,0,1,1-.641,0V.446a.324.324,0,0,1,.32-.321.335.335,0,0,1,.263.136l3.437,5.167V.446a.321.321,0,0,1,.641,0" transform="translate(-12.888 -0.067)" fill="#fff"/>
    <path id="Trazado_413" data-name="Trazado 413" d="M36.514,3.41c0-2.3,1.146-3.41,3.03-3.41A2.67,2.67,0,0,1,41.73,1.03a.34.34,0,0,1,.068.2.313.313,0,0,1-.564.184A2.11,2.11,0,0,0,39.544.6c-1.5,0-2.35.9-2.35,2.807,0,2.02.855,2.8,2.35,2.8a2.04,2.04,0,0,0,1.691-.8A.313.313,0,0,1,41.8,5.6a.3.3,0,0,1-.058.184,2.713,2.713,0,0,1-2.2,1.029c-1.884,0-3.03-1.009-3.03-3.4" transform="translate(-19.499 0)" fill="#fff"/>
    <path id="Trazado_414" data-name="Trazado 414" d="M49.667,3.41c0-2.3,1.146-3.41,3.03-3.41s3.03,1.108,3.03,3.41c0,2.282-1.146,3.4-3.03,3.4s-3.03-1.116-3.03-3.4m.68,0c0,1.894.864,2.8,2.35,2.8s2.35-.9,2.35-2.8S54.183.6,52.7.6s-2.35.9-2.35,2.807" transform="translate(-26.523 0)" fill="#fff"/>
  </g>
</svg>
