<svg xmlns="http://www.w3.org/2000/svg" xmlns:xlink="http://www.w3.org/1999/xlink" width="192.665" height="24.752" viewBox="0 0 192.665 24.752">
  <defs>
    <clipPath id="clip-path">
      <rect id="Rectángulo_326" data-name="Rectángulo 326" width="192.665" height="24.752" fill="#fff"/>
    </clipPath>
  </defs>
  <g id="Grupo_330" data-name="Grupo 330" transform="translate(-13 -2)">
    <g id="Grupo_329" data-name="Grupo 329" transform="translate(13 2)" clip-path="url(#clip-path)">
      <path id="Trazado_396" data-name="Trazado 396" d="M175.28,0a2.259,2.259,0,0,0-2.227,2.244,2.236,2.236,0,0,0,2.227,2.244,2.273,2.273,0,0,0,2.244-2.244A2.219,2.219,0,0,0,175.28,0M17.682,1.053A84.842,84.842,0,0,0,4.216,3.746a1.206,1.206,0,0,0-.794,1.4c.328,1.277.483,1.916.811,3.211a.936.936,0,0,0,1.243.639A91.881,91.881,0,0,1,19.27,5.956a.858.858,0,0,0,.638-1.191C19.494,3.591,19.287,3,18.856,1.83a1.163,1.163,0,0,0-1.174-.777m93.654.138a9.3,9.3,0,0,0-4.368,1.4V21.3h4.368Zm49.167,0a9.423,9.423,0,0,0-4.368,1.4V20.458a16.29,16.29,0,0,0,6.319,1.139c5.076,0,8.2-3.055,8.2-8.356,0-3.78-1.761-6.785-6.06-6.785a6.484,6.484,0,0,0-4.109,1.658V1.191ZM36.378,1.9a41.379,41.379,0,0,0-6.267.587V21.3h7.113c3.867,0,7.285-2.279,7.285-5.68a4.622,4.622,0,0,0-3.746-4.954A3.775,3.775,0,0,0,43.421,6.94C43.4,3.729,40.279,1.9,36.378,1.9m0,3.66c1.812,0,2.658.846,2.658,2.037,0,1.26-.811,1.985-2.538,1.985H34.531V5.714a13.352,13.352,0,0,1,1.847-.155M84.8,6.4c-4.557,0-8.1,2.676-8.1,7.786,0,4.713,2.917,7.406,7.372,7.406a12.682,12.682,0,0,0,4.54-.932l-.777-3.5a7.955,7.955,0,0,1-2.693.518c-2.745,0-3.849-1.433-3.849-3.764,0-2.3,1.191-3.815,4.109-3.815a7.9,7.9,0,0,1,1.761.259,6.512,6.512,0,0,0,1.45-3.47A17,17,0,0,0,84.8,6.4m12.188,0a7.14,7.14,0,0,0-7.544,7.579c0,4.61,2.952,7.613,7.544,7.613,4.558,0,7.544-2.917,7.544-7.613-.017-4.54-2.952-7.579-7.544-7.579m24.341,0a7.14,7.14,0,0,0-7.544,7.579c0,4.61,2.952,7.613,7.544,7.613,4.558,0,7.544-2.917,7.544-7.613,0-4.54-2.952-7.579-7.544-7.579M68.7,6.439a14,14,0,0,0-7.164,1.9L61.5,21.3h4.368V10.375a7.72,7.72,0,0,1,1.847-.241c1.761,0,2.779.794,2.779,2.33V21.3h4.333V10.928c0-2.832-2.8-4.489-6.128-4.489m69.106,0a12.555,12.555,0,0,0-6.733,1.9L131.034,21.3H135.4V10.375a7.72,7.72,0,0,1,1.847-.241c1.727,0,2.71.794,2.71,2.33V21.3h4.3V12.671a6.229,6.229,0,0,0-.345-2.089,6.018,6.018,0,0,1,2.227-.432c1.726,0,2.71.794,2.71,2.331v8.839h4.3V10.928c0-2.8-2.451-4.489-5.611-4.489a10.338,10.338,0,0,0-5.265,1.605A6.574,6.574,0,0,0,137.8,6.439m37.513,0a5.582,5.582,0,0,0-2.192.414V21.3h4.368V6.853a5.266,5.266,0,0,0-2.175-.414M52.33,6.474a15.356,15.356,0,0,0-5.455,1.139l.345,1.053c.466,1.277,1.018,1.726,1.709,1.726.294,0,2.521-.38,3.349-.38,1.588,0,2.313.466,2.4,2.279-4.765.138-8.787,1.174-8.787,5.334,0,2.762,2.52,4.023,5.542,4.023,3.4,0,5.921-.639,7.475-1.83v-7.7c.017-4.075-2.417-5.646-6.577-5.646m133.757,0a15.353,15.353,0,0,0-5.455,1.139l.345,1.053c.466,1.277,1.018,1.726,1.709,1.726.294,0,2.52-.38,3.349-.38,1.588,0,2.313.466,2.4,2.279-4.765.138-8.787,1.174-8.787,5.334,0,2.762,2.521,4.023,5.542,4.023,3.4,0,5.921-.639,7.475-1.83v-7.7c.017-4.075-2.417-5.646-6.578-5.646M21.514,8.183A74.027,74.027,0,0,0,.694,13.828a1.31,1.31,0,0,0-.673,1.381c.259,1.381.4,2.055.656,3.436a.8.8,0,0,0,1.208.587A81.739,81.739,0,0,1,23.05,13a.817.817,0,0,0,.518-1.157c-.363-1.139-.552-1.709-.932-2.831a1.108,1.108,0,0,0-1.122-.829m141.233,1.951c2.227,0,3.608.967,3.608,3.643,0,2.331-1.1,4.316-3.643,4.316a14.577,14.577,0,0,1-2.227-.173V10.6a5.33,5.33,0,0,1,2.262-.466M96.99,10.2c2.02,0,3.176,1.4,3.176,3.8,0,2.5-1.157,3.815-3.176,3.815C95,17.816,93.814,16.5,93.814,14c0-2.4,1.208-3.8,3.177-3.8m24.341,0c2.02,0,3.177,1.4,3.177,3.8,0,2.5-1.157,3.815-3.177,3.815-1.985,0-3.176-1.312-3.176-3.815,0-2.4,1.208-3.8,3.176-3.8m-86.8,3.021h2.313c1.934,0,2.917.639,2.917,2.193,0,1.433-1.07,2.192-2.952,2.192H34.531Zm19.3,1.847h.846v2.5a4.013,4.013,0,0,1-2.486.725c-1.415,0-2.106-.38-2.106-1.433,0-1.364,1.8-1.8,3.746-1.8m133.757,0h.846v2.5a4.011,4.011,0,0,1-2.486.725c-1.416,0-2.106-.38-2.106-1.433,0-1.364,1.778-1.8,3.746-1.8m-166.161.777A113.526,113.526,0,0,0,8.2,19.49,1.1,1.1,0,0,0,7.5,20.8L8.359,24a1.088,1.088,0,0,0,1.468.673,132.074,132.074,0,0,1,13.206-4.005.835.835,0,0,0,.483-1.122c-.345-1.157-.535-1.726-.9-2.866a1.085,1.085,0,0,0-1.191-.829" transform="translate(0 0)" fill="#fff"/>
    </g>
  </g>
</svg>
