<svg id="Grupo_336" data-name="Grupo 336" xmlns="http://www.w3.org/2000/svg" xmlns:xlink="http://www.w3.org/1999/xlink" width="224.313" height="22.605" viewBox="0 0 224.313 22.605">
  <defs>
    <clipPath id="clip-path">
      <rect id="Rectángulo_329" data-name="Rectángulo 329" width="224.313" height="22.605" fill="none"/>
    </clipPath>
  </defs>
  <g id="Grupo_335" data-name="Grupo 335" clip-path="url(#clip-path)">
    <path id="Trazado_415" data-name="Trazado 415" d="M76.385,24.532c3.516.763,12.183.529,12.388-5.308,0-2.341-2.935-4.525-5.727-5.152a18.142,18.142,0,0,0-9.112,0c-2.138.842-2.81-1.315-.858-2.046,3.7-1.384,18.107-1.685,18.787,7.2-.6,8.768-13.182,8.141-16.013,7.559a2.09,2.09,0,0,1-1.973-2.225v-7.3a1.254,1.254,0,1,1,2.507.016Z" transform="translate(-33.668 -5.125)" fill="#dd252b"/>
    <path id="Trazado_416" data-name="Trazado 416" d="M120.895,14.244c-2.8,0-7.528,8.781-8.916,11.933-.831,1.885-3.457.537-2.626-1.35,1.489-3.387,7.113-13.606,11.516-13.519,4.4-.088,10.021,10.132,11.513,13.519.832,1.888-1.792,3.236-2.627,1.35-1.387-3.153-6.062-11.933-8.86-11.933" transform="translate(-51.117 -5.133)" fill="#dd252b"/>
    <path id="Trazado_417" data-name="Trazado 417" d="M157.819,24.15c2.8,0,7.526-8.788,8.912-11.933.831-1.888,3.457-.544,2.627,1.343-1.491,3.393-7.114,13.613-11.514,13.525-4.4.088-10.026-10.132-11.519-13.525-.828-1.888,1.8-3.231,2.631-1.343,1.382,3.145,6.056,11.933,8.863,11.933" transform="translate(-68.425 -5.132)" fill="#dd252b"/>
    <path id="Trazado_418" data-name="Trazado 418" d="M196.175,12.808v12.8a1.407,1.407,0,1,1-2.812-.074l0-12.759a1.411,1.411,0,1,1,2.817.031" transform="translate(-90.517 -5.125)" fill="#dd252b"/>
    <path id="Trazado_419" data-name="Trazado 419" d="M213.724,24.15c2.8,0,7.526-8.788,8.912-11.933.831-1.888,3.455-.544,2.627,1.343-1.493,3.393-7.118,13.613-11.521,13.525-4.4.088-10.023-10.132-11.507-13.525-.831-1.888,1.791-3.231,2.625-1.343,1.383,3.145,6.057,11.933,8.864,11.933" transform="translate(-94.598 -5.132)" fill="#dd252b"/>
    <path id="Trazado_420" data-name="Trazado 420" d="M261.639,20.519c.83,1.787,3.182,3.243,5.457,3.754a18.018,18.018,0,0,0,9.1,0c2.075-.694,2.807,1.375.841,2.051-3.854,1.332-18,1.808-18.835-7.088.457-8.475,11.76-8.256,16.073-7.675,2.109.284,1.678,2.574-.521,2.1-2.893-.4-10.739-.864-12.267,4.475l8.049.005c1.254,0,1.254,2.381,0,2.381Z" transform="translate(-120.875 -5.138)" fill="#dd252b"/>
    <path id="Trazado_421" data-name="Trazado 421" d="M345.023,24.532c3.511.762,12.188.529,12.389-5.308,0-2.343-2.939-4.525-5.737-5.152a18.108,18.108,0,0,0-9.1,0c-2.14.842-2.808-1.315-.857-2.046,3.7-1.384,18.1-1.685,18.784,7.2-.6,8.768-13.176,8.141-16,7.559a2.087,2.087,0,0,1-1.976-2.225v-7.3a1.254,1.254,0,1,1,2.506.016Z" transform="translate(-159.426 -5.125)" fill="#dd252b"/>
    <path id="Trazado_422" data-name="Trazado 422" d="M389.548,14.243c-2.808,0-7.532,8.781-8.918,11.934-.829,1.885-3.451.537-2.625-1.35,1.493-3.387,7.116-13.606,11.517-13.518,4.4-.088,10.021,10.131,11.515,13.518.825,1.888-1.8,3.236-2.625,1.35-1.389-3.153-6.06-11.934-8.863-11.934" transform="translate(-176.882 -5.133)" fill="#dd252b"/>
    <path id="Trazado_423" data-name="Trazado 423" d="M252.061,12.808v12.8a1.409,1.409,0,1,1-2.817-.074V12.777a1.411,1.411,0,1,1,2.817.031" transform="translate(-116.679 -5.125)" fill="#dd252b"/>
    <path id="Trazado_424" data-name="Trazado 424" d="M309.616,21.758c-1.744-3.272-3.659-7.611-4.983-7.708-3.245-.006-1.777,6.575-1.834,11.7a1.41,1.41,0,1,1-2.814-.2c-.007-6.541-1.367-14.349,4.72-14.349,1.784,0,3.465,2.737,4.981,5.317,1.744,3.277,3.818,7.621,5.136,7.715,3.247.016,1.7-6.438,1.76-11.571a1.412,1.412,0,1,1,2.816.2c.008,6.545,1.444,14.22-4.635,14.22-1.79,0-3.633-2.746-5.147-5.327" transform="translate(-140.37 -5.086)" fill="#dd252b"/>
    <path id="Trazado_425" data-name="Trazado 425" d="M5.726,18.287c.053.469.013,2.467-1.779,5.2-1.86,3.019,1.076,8.055,7,6.775a10.471,10.471,0,0,0,3.614.542,10.668,10.668,0,0,0,3.627-.529c5.926,1.277,8.846-3.769,6.991-6.788-1.791-2.729-1.833-4.726-1.78-5.2Z" transform="translate(-1.588 -8.301)" fill="#dd252b" fill-rule="evenodd"/>
    <path id="Trazado_426" data-name="Trazado 426" d="M19.185,31.694c-5.792-.154-6.841-2.89-5.24-3.461.932-.336,2.155-.893,2.155-.893-.62-3.089.4-7.032,3.1-7.024,2.7-.008,3.687,4.061,3.074,7.086,0,0,1.233.459,2.148.831,1.511.6.552,3.307-5.239,3.461" transform="translate(-6.212 -9.222)" fill="#0580bd" fill-rule="evenodd"/>
    <path id="Trazado_427" data-name="Trazado 427" d="M19.722,30.1c-1.54-4.416-.186-8.553,2.177-8.549,2.259.016,3.791,4.023,2.2,8.535a11.17,11.17,0,0,0-2.274-.174,12.383,12.383,0,0,0-2.1.188" transform="translate(-8.925 -9.783)" fill="#ffd919" fill-rule="evenodd"/>
    <path id="Trazado_428" data-name="Trazado 428" d="M20.727,39.186c2.335,0,4.169-.517,4.169-1.226s-1.834-1.234-4.169-1.234-4.163.515-4.163,1.234,1.832,1.226,4.163,1.226" transform="translate(-7.754 -16.67)" fill="#ec9023" fill-rule="evenodd"/>
    <path id="Trazado_429" data-name="Trazado 429" d="M9.2,22.273H12a.807.807,0,0,1,.8.82v1.939a.811.811,0,0,1-.8.826H9.2a.813.813,0,0,1-.8-.826V23.093a.81.81,0,0,1,.8-.82" transform="translate(-3.93 -10.11)" fill="#0580bd" fill-rule="evenodd"/>
    <path id="Trazado_430" data-name="Trazado 430" d="M9.973,23.12h2.214a.612.612,0,0,1,.61.619v1.418a.614.614,0,0,1-.61.621H9.973a.614.614,0,0,1-.606-.621V23.739a.612.612,0,0,1,.606-.619" transform="translate(-4.385 -10.495)" fill="#221e20"/>
    <path id="Trazado_431" data-name="Trazado 431" d="M14.553,24.8c-1-.1-1.354-1.308-1.434-1.683h.824a.613.613,0,0,1,.61.619Z" transform="translate(-6.141 -10.494)" fill="#ffd919" fill-rule="evenodd"/>
    <path id="Trazado_432" data-name="Trazado 432" d="M10.816,23.12c-.063.343-.379,1.632-1.448,1.69V23.739a.612.612,0,0,1,.606-.619Z" transform="translate(-4.385 -10.495)" fill="#ffd919" fill-rule="evenodd"/>
    <path id="Trazado_433" data-name="Trazado 433" d="M32.911,22.273h2.8a.81.81,0,0,1,.805.82v1.939a.813.813,0,0,1-.805.826h-2.8a.812.812,0,0,1-.8-.826V23.093a.808.808,0,0,1,.8-.82" transform="translate(-15.033 -10.11)" fill="#0580bd" fill-rule="evenodd"/>
    <path id="Trazado_434" data-name="Trazado 434" d="M33.689,23.12H35.91a.609.609,0,0,1,.6.619v1.418a.611.611,0,0,1-.6.621H33.689a.614.614,0,0,1-.6-.621V23.739a.612.612,0,0,1,.6-.619" transform="translate(-15.489 -10.495)" fill="#221e20"/>
    <path id="Trazado_435" data-name="Trazado 435" d="M38.265,24.8c-1-.1-1.35-1.308-1.439-1.683h.835a.609.609,0,0,1,.6.619Z" transform="translate(-17.239 -10.494)" fill="#ffd919" fill-rule="evenodd"/>
    <path id="Trazado_436" data-name="Trazado 436" d="M34.534,23.12c-.065.343-.38,1.632-1.447,1.69V23.739a.612.612,0,0,1,.6-.619Z" transform="translate(-15.489 -10.495)" fill="#ffd919" fill-rule="evenodd"/>
    <path id="Trazado_437" data-name="Trazado 437" d="M35.119,3.317c-.3-1.03-.348-1.55.566-1.55h2.033c1.227-.023.723.96.606,1.926-.157,1.27-.157,1.655-.157,1.655s-3.046-2.012-3.049-2.03" transform="translate(-16.35 -0.802)" fill="#dd252b" fill-rule="evenodd"/>
    <path id="Trazado_438" data-name="Trazado 438" d="M13.273,9.987c-3.016,0-7.167.271-9.833.481C1.392,10.63-.189,9.031,1.172,7.516,4.074,4.29,11.151.227,13.3.227c2.277,0,9.225,4.063,12.122,7.289,1.365,1.515-.014,2.953-2.066,2.953-2.286,0-7.063-.476-10.08-.481" transform="translate(-0.311 -0.103)" fill="#ec9023" fill-rule="evenodd"/>
    <path id="Trazado_439" data-name="Trazado 439" d="M27.449,30.992a.393.393,0,1,1,.784,0,.392.392,0,1,1-.784,0" transform="translate(-12.85 -13.878)" fill="#221e20"/>
    <path id="Trazado_440" data-name="Trazado 440" d="M12.978,19.994a13.093,13.093,0,0,0-2.176.184c-1.437-4.29-.123-8.332,2.176-8.332s3.609,4.05,2.174,8.333a12.308,12.308,0,0,0-2.174-.185m2.123.338c1.185.19,1.979.547,1.979.957,0,.618-1.833,1.122-4.1,1.122s-4.1-.5-4.1-1.122c0-.411.783-.767,1.974-.957,0,0,1.293-.161,2.125-.161s2.123.161,2.123.161m.179-.129c1.5-4.45.038-8.544-2.3-8.538s-3.8,4.088-2.3,8.538c-1.162.233-1.934.632-1.934,1.087a.559.559,0,0,0,.23.412C7.02,20.821,6.838,19.387,7.907,19c.928-.336,2.057-.786,2.057-.786-.6-3,.32-7.023,3.014-7.019s3.612,4.023,3.012,7.019c0,0,1.124.467,2.058.786,1.045.361.891,1.8-1.055,2.7a.571.571,0,0,0,.213-.405c0-.455-.767-.854-1.927-1.087m3.637-17.74c-.231-.939-.237-1.334.554-1.334h1.74c1.155-.02.679.893.574,1.808-.061.556-.1,1-.119,1.337C20.738,3.61,19.808,3,18.916,2.463M16.9,21.926c5.554.967,8.271-3.82,6.488-6.713a9.964,9.964,0,0,1-1.75-4.758c-3.644-.191-6.15-.374-8.658-.407-2.51.033-5.018.216-8.658.407a10.053,10.053,0,0,1-1.756,4.758c-1.778,2.893.94,7.68,6.5,6.713-2.359-.919-2.647-2.481-1.387-2.983.916-.364,2.15-.825,2.15-.825-.616-3.089.451-7.161,3.154-7.157s3.767,4.068,3.152,7.157c0,0,1.237.461,2.152.825,1.258.5.969,2.064-1.383,2.983M12.98,9.661c-3.129.05-6.1.273-9.592.506C1.22,10.311,0,8.821,1.363,7.287,3.379,5.024,10.253.369,12.978.369s9.593,4.655,11.61,6.917c1.365,1.534.148,3.025-2.019,2.881-3.493-.233-6.46-.457-9.588-.506m5.532-7.437c-.022-.092-.051-.187-.077-.281-.149-.552-.013-1.17.916-1.17h2.025c1.194,0,1.062.846.856,1.663a13.524,13.524,0,0,0-.311,2.025s1.66,1.253,2.578,2.046c2.9,2.513,1.011,4.155-1.755,4.013-.278-.018-.552-.031-.816-.043a7.36,7.36,0,0,0,1.534,4.131c3.208,3.942-1.045,8.89-7.05,7.5a12.752,12.752,0,0,1-3.435.5,12.793,12.793,0,0,1-3.439-.5c-6,1.39-10.257-3.557-7.045-7.5a7.308,7.308,0,0,0,1.529-4.134l-.814.046c-2.768.142-4.657-1.5-1.753-4.013C5.765,2.779,10.971.014,12.978,0c1.1.009,3.18.854,5.535,2.224" transform="translate(0 0)" fill="#221e20" fill-rule="evenodd"/>
    <path id="Trazado_441" data-name="Trazado 441" d="M11.928,25.873h-2.8a.9.9,0,0,1-.888-.912V23.022a.9.9,0,0,1,.888-.907h2.8a.9.9,0,0,1,.883.907v1.939a.9.9,0,0,1-.883.912m-2.8-3.585a.728.728,0,0,0-.72.734v1.939a.731.731,0,0,0,.72.739h2.8a.728.728,0,0,0,.715-.739V23.022a.726.726,0,0,0-.715-.734Z" transform="translate(-3.856 -10.038)" fill="#221e20"/>
    <path id="Trazado_442" data-name="Trazado 442" d="M35.638,25.873h-2.8a.9.9,0,0,1-.883-.912V23.022a.9.9,0,0,1,.883-.907h2.8a.9.9,0,0,1,.889.907v1.939a.9.9,0,0,1-.889.912m-2.8-3.585a.726.726,0,0,0-.715.734v1.939a.728.728,0,0,0,.715.739h2.8a.731.731,0,0,0,.721-.739V23.022a.729.729,0,0,0-.721-.734Z" transform="translate(-14.959 -10.038)" fill="#221e20"/>
  </g>
</svg>
