<svg xmlns="http://www.w3.org/2000/svg" xmlns:xlink="http://www.w3.org/1999/xlink" width="224.232" height="22.6" viewBox="0 0 224.232 22.6">
  <defs>
    <clipPath id="clip-path">
      <rect id="Rectángulo_333" data-name="Rectángulo 333" width="224.232" height="22.6" fill="none"/>
    </clipPath>
  </defs>
  <g id="Grupo_337" data-name="Grupo 337" transform="translate(0 0)">
    <g id="Grupo_338" data-name="Grupo 338" transform="translate(0 0)" clip-path="url(#clip-path)">
      <path id="Trazado_457" data-name="Trazado 457" d="M75.345,24.42c3.518.764,12.193.527,12.394-5.307,0-2.345-2.938-4.531-5.732-5.163a18.143,18.143,0,0,0-9.111,0c-2.132.845-2.81-1.32-.858-2.039,3.7-1.385,18.114-1.69,18.8,7.2-.6,8.77-13.179,8.141-16.016,7.558a2.087,2.087,0,0,1-1.977-2.224V17.141a1.256,1.256,0,1,1,2.511.014Z" transform="translate(-32.767 -5.003)" fill="#fff"/>
      <path id="Trazado_458" data-name="Trazado 458" d="M119.469,14.122c-2.811,0-7.538,8.783-8.92,11.939-.829,1.892-3.462.541-2.629-1.348,1.488-3.393,7.11-13.619,11.519-13.528,4.4-.091,10.027,10.134,11.518,13.528.831,1.889-1.795,3.239-2.622,1.348-1.384-3.156-6.071-11.939-8.864-11.939" transform="translate(-49.814 -5.007)" fill="#fff"/>
      <path id="Trazado_459" data-name="Trazado 459" d="M156,24.031c2.8,0,7.529-8.794,8.912-11.935.833-1.893,3.458-.548,2.626,1.34-1.488,3.4-7.111,13.626-11.513,13.538-4.4.087-10.027-10.142-11.526-13.538-.826-1.889,1.8-3.233,2.629-1.34,1.393,3.141,6.066,11.935,8.873,11.935" transform="translate(-66.725 -5.006)" fill="#fff"/>
      <path id="Trazado_460" data-name="Trazado 460" d="M193.854,12.693V25.5a1.408,1.408,0,1,1-2.815-.072V12.661a1.411,1.411,0,1,1,2.815.032" transform="translate(-88.312 -5.002)" fill="#fff"/>
      <path id="Trazado_461" data-name="Trazado 461" d="M211.31,24.031c2.8,0,7.527-8.794,8.916-11.935.827-1.893,3.455-.548,2.625,1.34-1.493,3.4-7.121,13.626-11.526,13.538-4.4.087-10.025-10.142-11.509-13.538-.832-1.889,1.788-3.233,2.622-1.34,1.391,3.141,6.066,11.935,8.871,11.935" transform="translate(-92.295 -5.006)" fill="#fff"/>
      <path id="Trazado_462" data-name="Trazado 462" d="M258.626,20.4c.826,1.788,3.181,3.244,5.461,3.753a17.959,17.959,0,0,0,9.106,0c2.077-.694,2.811,1.38.845,2.056-3.865,1.337-18.013,1.812-18.846-7.09.457-8.487,11.767-8.266,16.08-7.68,2.108.279,1.681,2.565-.518,2.1-2.9-.4-10.749-.869-12.281,4.475l8.055,0c1.253,0,1.253,2.384,0,2.384Z" transform="translate(-117.969 -5.013)" fill="#fff"/>
      <path id="Trazado_463" data-name="Trazado 463" d="M341.135,24.42c3.511.764,12.185.527,12.39-5.307,0-2.345-2.934-4.531-5.729-5.163a18.173,18.173,0,0,0-9.118,0c-2.139.845-2.811-1.32-.857-2.039,3.709-1.385,18.111-1.69,18.794,7.2-.6,8.77-13.182,8.141-16.009,7.558a2.082,2.082,0,0,1-1.977-2.224V17.141a1.254,1.254,0,1,1,2.506.014Z" transform="translate(-155.63 -5.003)" fill="#fff"/>
      <path id="Trazado_464" data-name="Trazado 464" d="M385.272,14.122c-2.81,0-7.536,8.783-8.92,11.939-.828,1.892-3.457.541-2.625-1.348,1.491-3.393,7.118-13.619,11.52-13.528,4.4-.091,10.023,10.134,11.517,13.528.823,1.889-1.8,3.239-2.624,1.348-1.389-3.156-6.067-11.939-8.868-11.939" transform="translate(-172.69 -5.007)" fill="#fff"/>
      <path id="Trazado_465" data-name="Trazado 465" d="M249.141,12.693V25.5a1.408,1.408,0,1,1-2.816-.072V12.661a1.411,1.411,0,1,1,2.816.032" transform="translate(-113.87 -5.002)" fill="#fff"/>
      <path id="Trazado_466" data-name="Trazado 466" d="M306.166,21.642c-1.748-3.275-3.662-7.617-4.982-7.711-3.252-.012-1.78,6.576-1.837,11.708a1.41,1.41,0,1,1-2.813-.2c-.01-6.549-1.365-14.359,4.715-14.359,1.783,0,3.477,2.737,4.986,5.324,1.742,3.278,3.818,7.625,5.136,7.718,3.247.015,1.7-6.44,1.762-11.573a1.413,1.413,0,1,1,2.82.188c0,6.554,1.437,14.233-4.646,14.233-1.792,0-3.631-2.747-5.141-5.327" transform="translate(-137.018 -4.959)" fill="#fff"/>
      <path id="Trazado_467" data-name="Trazado 467" d="M10.719,22.523c-.063.346-.374,1.609-1.441,1.664V23.124a.618.618,0,0,1,.6-.6Zm-1.084-.409h2.716a.789.789,0,0,1,.78.8v1.879a.79.79,0,0,1-.78.8H9.635a.787.787,0,0,1-.777-.8V22.914a.787.787,0,0,1,.777-.8m1.63.409c.068.346.374,1.609,1.443,1.664V23.124a.616.616,0,0,0-.6-.6Z" transform="translate(-4.095 -9.9)" fill="#fff" fill-rule="evenodd"/>
      <path id="Trazado_468" data-name="Trazado 468" d="M27.142,30.64a.392.392,0,1,1,.393.412.4.4,0,0,1-.393-.412" transform="translate(-12.547 -13.531)" fill="#fff" fill-rule="evenodd"/>
      <path id="Trazado_469" data-name="Trazado 469" d="M12.972,22.289c2.133,0,3.731-.44,3.731-1.026s-1.344-1.02-3.731-1.02-3.733.445-3.733,1.02,1.6,1.026,3.733,1.026m0-10.425c2.3,0,3.557,4.037,2.124,8.32a12.107,12.107,0,0,0-2.124-.173,12.092,12.092,0,0,0-2.124.173c-1.433-4.283-.172-8.32,2.124-8.32M12.977.732c2.72,0,9.23,4.288,11.242,6.549,1.365,1.537.509,2.654-1.658,2.511-3.494-.231-6.461-.457-9.589-.5-3.127.046-6.1.272-9.588.5C1.217,9.935.359,8.818,1.725,7.281,3.737,5.019,10.254.732,12.977.732M19.126,2.5c-.291-.86-.308-1.138.452-1.125h1.609c.947,0,.545.59.362,1.554-.118.625-.093.806-.16,1.222-.925-.667-1.367-1.117-2.263-1.651m-6.154,7.536c-2.51.039-4.744.22-8.386.416a8.854,8.854,0,0,1-1.48,4.755c-1.777,2.879.405,7.341,5.857,6.395,0,0-.042-.02-.149-.079-1.764-.87-2.092-2.039-.911-2.532.9-.377,2.043-.761,2.043-.761-.6-2.992.348-7.062,3.026-7.08,2.677.018,3.623,4.088,3.025,7.08,0,0,1.146.384,2.043.761,1.184.493.855,1.662-.91,2.532-.106.059-.148.079-.148.079,5.45.947,7.632-3.516,5.858-6.395a8.85,8.85,0,0,1-1.483-4.755c-3.64-.2-5.876-.378-8.385-.416M12.972,0c1.1.007,3.178.844,5.533,2.215-.02-.089-.051-.184-.075-.275-.149-.552-.04-1.169.893-1.169h2.049c1.263,0,1.095.695.857,1.662a12.7,12.7,0,0,0-.312,2.025S23.574,5.711,24.488,6.5c2.9,2.513,1.013,4.154-1.751,4.011l-.818-.043a7.413,7.413,0,0,0,1.534,4.134c3.21,3.941-1.04,8.888-7.046,7.5a12.677,12.677,0,0,1-3.435.5,12.65,12.65,0,0,1-3.433-.5c-6.009,1.389-10.26-3.557-7.047-7.5a7.391,7.391,0,0,0,1.535-4.134l-.819.043C.44,10.657-1.448,8.988,1.456,6.479c.92-.793,2.573-2.02,2.573-2.02A40.75,40.75,0,0,1,7.437,2.215C9.793.844,11.87.007,12.972,0" transform="translate(0 0)" fill="#fff" fill-rule="evenodd"/>
      <path id="Trazado_470" data-name="Trazado 470" d="M33.32,22.523c-.069.346-.374,1.609-1.442,1.664V23.124a.619.619,0,0,1,.6-.6Zm-1.084-.409h2.716a.788.788,0,0,1,.776.8v1.879a.789.789,0,0,1-.776.8H32.236a.788.788,0,0,1-.781-.8V22.914a.788.788,0,0,1,.781-.8m1.629.409c.066.346.374,1.609,1.441,1.664V23.124a.615.615,0,0,0-.6-.6Z" transform="translate(-14.541 -9.9)" fill="#fff" fill-rule="evenodd"/>
    </g>
  </g>
</svg>
