<svg xmlns="http://www.w3.org/2000/svg" xmlns:xlink="http://www.w3.org/1999/xlink" width="151.675" height="37.07" viewBox="0 0 151.675 37.07">
  <defs>
    <clipPath id="clip-path">
      <rect id="Rectángulo_285" data-name="Rectángulo 285" width="151.675" height="37.07" fill="none"/>
    </clipPath>
  </defs>
  <g id="Grupo_273" data-name="Grupo 273" clip-path="url(#clip-path)">
    <path id="Trazado_297" data-name="Trazado 297" d="M9.564,22.25c-.29,0-.584-.013-.877-.04a8.46,8.46,0,0,1-3.379-1.054,10.831,10.831,0,0,1-2.751-2.221,8.205,8.205,0,0,1-1.14-1.588,13.607,13.607,0,0,1-.812-1.767A9.643,9.643,0,0,1,0,12.086,10.964,10.964,0,0,1,.575,8.721a10.848,10.848,0,0,1,1.561-2.98,9.853,9.853,0,0,1,2.4-2.313A9.329,9.329,0,0,1,7.6,2.089a8.8,8.8,0,0,1,2.042-.235,10.377,10.377,0,0,1,1.541.119A8.71,8.71,0,0,1,15.25,3.732,10.641,10.641,0,0,1,18.111,7.1a3.643,3.643,0,0,1,.209.417c.095.212.162.363.2.459l.021.052V8.07a.473.473,0,0,0,.025.055.677.677,0,0,1,.087.3v.2l-.182.073a1.486,1.486,0,0,0-.255.14.673.673,0,0,1-.371.123.549.549,0,0,1-.205-.04l-.112-.045-.046-.111a12.074,12.074,0,0,0-.994-1.892,9.508,9.508,0,0,0-1.367-1.637,7.67,7.67,0,0,0-3.477-1.864,8.367,8.367,0,0,0-3.977.013A7.815,7.815,0,0,0,4.7,4.858,8.494,8.494,0,0,0,2.525,7.393a9.574,9.574,0,0,0-1.1,3.139A9.33,9.33,0,0,0,1.456,13.7,9.542,9.542,0,0,0,2.5,16.607a8.485,8.485,0,0,0,4.587,3.912,7.857,7.857,0,0,0,2.709.461c.189,0,.383-.007.577-.018a6.629,6.629,0,0,0,2.33-.535,8.534,8.534,0,0,0,2.091-1.281,8.923,8.923,0,0,0,1.661-1.824,8.682,8.682,0,0,0,1.079-2.158l.095-.283,1.084.4v.306l-.015.045a9.6,9.6,0,0,1-.561,1.336,12.506,12.506,0,0,1-.728,1.242,9.485,9.485,0,0,1-1.73,1.875,9.169,9.169,0,0,1-2.117,1.31,10.138,10.138,0,0,1-2.368.718,9.422,9.422,0,0,1-1.626.141" transform="translate(0 -0.11)" fill="#2a3f77"/>
    <path id="Trazado_298" data-name="Trazado 298" d="M32.471,22.338a10.817,10.817,0,0,1-2.05-.2,8.452,8.452,0,0,1-2.247-.735,11.175,11.175,0,0,1-2.032-1.273,10.633,10.633,0,0,1-1.706-1.692,8.835,8.835,0,0,1-1.225-2.018,10.875,10.875,0,0,1-.986-4,10.11,10.11,0,0,1,.5-3.631,10.246,10.246,0,0,1,1.679-3.085A10.981,10.981,0,0,1,26.97,3.356a10.672,10.672,0,0,1,3.183-1.405,10.343,10.343,0,0,1,2.567-.327c.3,0,.614.014.92.04a9.9,9.9,0,0,1,3.506,1.02A11.186,11.186,0,0,1,40.4,5.2a8.724,8.724,0,0,1,1.586,2.422,12.376,12.376,0,0,1,.828,2.742,9.906,9.906,0,0,1-1.078,6.593A10.274,10.274,0,0,1,39.738,19.5a10.4,10.4,0,0,1-2.682,1.808,11.3,11.3,0,0,1-3.163.93,9.922,9.922,0,0,1-1.421.1m.046-19.416a9.072,9.072,0,0,0-1.788.181,8.218,8.218,0,0,0-2.614,1.011A8.957,8.957,0,0,0,26.41,5.4a10.323,10.323,0,0,0-1.438,1.694,9.435,9.435,0,0,0-1.014,1.962,6.341,6.341,0,0,0-.414,2.094,11.623,11.623,0,0,0,.285,3.232A7.9,7.9,0,0,0,25.215,17.3a8.674,8.674,0,0,0,2.528,2.4,9.373,9.373,0,0,0,3.287,1.257,8.934,8.934,0,0,0,2.55.067,9.509,9.509,0,0,0,2.463-.622,8.927,8.927,0,0,0,2.174-1.257,8.385,8.385,0,0,0,1.725-1.833,8.81,8.81,0,0,0,1.394-2.973,9.622,9.622,0,0,0,.271-3.1,8.794,8.794,0,0,0-.756-2.929,9.423,9.423,0,0,0-1.677-2.529A9.059,9.059,0,0,0,36.7,3.912a9.53,9.53,0,0,0-4.183-.99" transform="translate(-1.322 -0.096)" fill="#2a3f77"/>
    <path id="Trazado_299" data-name="Trazado 299" d="M47.118,22.149V1.741h1.305V20.9h8.394v1.25Z" transform="translate(-2.803 -0.103)" fill="#2a3f77"/>
    <path id="Trazado_300" data-name="Trazado 300" d="M70.995,22.156l-3.919-5.143c-.286.049-.584.1-.889.16a5.951,5.951,0,0,1-1.1.1H64.8V16.044l.272-.017a7.35,7.35,0,0,0,3.073-.858,6.523,6.523,0,0,0,2.231-1.95,6.232,6.232,0,0,0,1.079-2.732,6.6,6.6,0,0,0-.363-3.193A6.453,6.453,0,0,0,69.421,4.83,6.19,6.19,0,0,0,66.88,3.385a2.1,2.1,0,0,1-.4-.094A1.878,1.878,0,0,0,66.2,3.22h0a1.392,1.392,0,0,1-.246-.033,1.142,1.142,0,0,0-.139-.023h-5.7V22.156H58.8V1.859h6.62a6.4,6.4,0,0,1,2.264.423,7.724,7.724,0,0,1,1.984,1.087A7.281,7.281,0,0,1,71.74,5.7,7.919,7.919,0,0,1,72.7,8.6a8.042,8.042,0,0,1-.216,3.052,7.191,7.191,0,0,1-1.452,2.79,6.946,6.946,0,0,1-1.366,1.291,11.982,11.982,0,0,1-1.321.814l4.216,5.612Z" transform="translate(-3.499 -0.11)" fill="#2a3f77"/>
    <path id="Trazado_301" data-name="Trazado 301" d="M93.411,22.2V3.886L76.454,22.149h-1.68L93.518,1.74H94.6V22.2Z" transform="translate(-4.449 -0.103)" fill="#2a3f77"/>
    <rect id="Rectángulo_282" data-name="Rectángulo 282" width="1.25" height="20.464" transform="translate(93.201 1.582)" fill="#2a3f77"/>
    <path id="Trazado_302" data-name="Trazado 302" d="M112.81,22.25c-.29,0-.585-.013-.877-.04a8.46,8.46,0,0,1-3.379-1.054,10.831,10.831,0,0,1-2.751-2.221,8.166,8.166,0,0,1-1.14-1.588,13.559,13.559,0,0,1-.812-1.767,9.664,9.664,0,0,1-.6-3.495,10.993,10.993,0,0,1,.574-3.365,10.873,10.873,0,0,1,1.561-2.98,9.854,9.854,0,0,1,2.4-2.313,9.329,9.329,0,0,1,3.065-1.339,8.8,8.8,0,0,1,2.042-.235,10.377,10.377,0,0,1,1.541.119A8.71,8.71,0,0,1,118.5,3.732a10.633,10.633,0,0,1,2.86,3.372,3.642,3.642,0,0,1,.21.418c.095.211.162.363.2.459l.021.052V8.07a.606.606,0,0,0,.024.055.661.661,0,0,1,.087.3v.2l-.182.073a1.486,1.486,0,0,0-.255.14.673.673,0,0,1-.371.123.549.549,0,0,1-.205-.04l-.112-.045-.046-.111a12.073,12.073,0,0,0-.994-1.892,9.5,9.5,0,0,0-1.367-1.637,7.678,7.678,0,0,0-3.477-1.864,8.367,8.367,0,0,0-3.977.013,7.815,7.815,0,0,0-2.97,1.479,8.494,8.494,0,0,0-2.172,2.535,9.574,9.574,0,0,0-1.1,3.139A9.354,9.354,0,0,0,104.7,13.7a9.568,9.568,0,0,0,1.042,2.909,8.485,8.485,0,0,0,4.587,3.912,7.857,7.857,0,0,0,2.709.461c.189,0,.383-.007.577-.018a6.629,6.629,0,0,0,2.33-.535,8.51,8.51,0,0,0,2.09-1.281,8.9,8.9,0,0,0,1.662-1.824,8.735,8.735,0,0,0,1.08-2.158l.094-.283,1.084.4v.306l-.015.045a9.671,9.671,0,0,1-.561,1.336,12.617,12.617,0,0,1-.728,1.242,9.49,9.49,0,0,1-1.731,1.875,9.175,9.175,0,0,1-2.116,1.31,10.138,10.138,0,0,1-2.368.718,9.422,9.422,0,0,1-1.626.141" transform="translate(-6.143 -0.11)" fill="#2a3f77"/>
    <path id="Trazado_303" data-name="Trazado 303" d="M125.842,22.149V1.741h12.907V2.934H127.091v7.089h9.657v1.305h-9.657V20.9h11.323v1.25Z" transform="translate(-7.487 -0.103)" fill="#2a3f77"/>
    <path id="Trazado_304" data-name="Trazado 304" d="M147.41,22.219a6.342,6.342,0,0,1-1.238-.12,8.907,8.907,0,0,1-1.941-.6,6.9,6.9,0,0,1-1.79-1.121,5.532,5.532,0,0,1-1.28-1.618,4.049,4.049,0,0,1-.437-2.115l.01-.2.188-.062a1.244,1.244,0,0,1,.4-.071h.564l.03.256a4.971,4.971,0,0,0,.7,2.03,4.14,4.14,0,0,0,1.553,1.46,6.726,6.726,0,0,0,2.019.735,6.221,6.221,0,0,0,1.166.111,6.1,6.1,0,0,0,.925-.071,6.546,6.546,0,0,0,2-.655,5.407,5.407,0,0,0,1.668-1.337,2.678,2.678,0,0,0,.676-1.317,6.27,6.27,0,0,0,.093-1.573v-.019a1.584,1.584,0,0,0-.226-.79c-.174-.3-.345-.583-.509-.838a4.675,4.675,0,0,0-1.8-1.471,6.435,6.435,0,0,0-2.348-.627c-.68-.057-1.318-.123-1.9-.2a6.721,6.721,0,0,1-1.851-.524,5.784,5.784,0,0,1-2.011-1.467,5.6,5.6,0,0,1-1.219-2.175,4.851,4.851,0,0,1-.119-1.982,5.093,5.093,0,0,1,.65-1.788,4.656,4.656,0,0,1,.929-1.221,5.533,5.533,0,0,1,1.25-.9,8.137,8.137,0,0,1,2.455-.837,8.827,8.827,0,0,1,1.508-.132,8.375,8.375,0,0,1,1.118.074,7.059,7.059,0,0,1,2.473.814,5.772,5.772,0,0,1,1.968,1.791,5.313,5.313,0,0,1,.716,1.333,3.632,3.632,0,0,1,.227,1.559L154,6.821h-1.222l-.006-.283a3.728,3.728,0,0,0-.632-2.073,4.615,4.615,0,0,0-1.562-1.417,6.49,6.49,0,0,0-2.149-.719,7.367,7.367,0,0,0-1.14-.091,6.794,6.794,0,0,0-1.191.1,6.1,6.1,0,0,0-2.1.785,4.2,4.2,0,0,0-1.5,1.54,3.592,3.592,0,0,0-.521,1.961,3.9,3.9,0,0,0,.519,1.766,4.648,4.648,0,0,0,1.3,1.417,5.428,5.428,0,0,0,3.048,1.088c.42.019.861.047,1.308.084a6.971,6.971,0,0,1,2.354.6,6.646,6.646,0,0,1,1.983,1.356,5.393,5.393,0,0,1,1.267,2,4.963,4.963,0,0,1-.829,4.772,6.455,6.455,0,0,1-1.913,1.577,7.683,7.683,0,0,1-2.391.826,7.262,7.262,0,0,1-1.21.105" transform="translate(-8.37 -0.058)" fill="#2a3f77"/>
    <path id="Trazado_305" data-name="Trazado 305" d="M110.48,27.515H4.164v1.293H145.919V27.515Z" transform="translate(-0.248 -1.637)" fill="#caa55e"/>
    <path id="Trazado_306" data-name="Trazado 306" d="M158.674,4.539h-.025a2.292,2.292,0,0,1-2.279-2.294,2.242,2.242,0,0,1,.694-1.6A2.277,2.277,0,0,1,158.7,0a2.3,2.3,0,0,1,1.621.682,2.239,2.239,0,0,1,.657,1.612,2.29,2.29,0,0,1-2.3,2.244m0-4.387a2.149,2.149,0,0,0-1.5.6,2.094,2.094,0,0,0-.647,1.491,2.142,2.142,0,0,0,2.128,2.142h.024a2.138,2.138,0,0,0,2.151-2.094,2.086,2.086,0,0,0-.613-1.5A2.155,2.155,0,0,0,158.7.152h-.027" transform="translate(-9.304 0)" fill="#2a3f77"/>
    <path id="Trazado_307" data-name="Trazado 307" d="M157.854,3.566l.028-2.324,1.031.011a1.39,1.39,0,0,1,.471.069.528.528,0,0,1,.256.225.647.647,0,0,1,.091.352.583.583,0,0,1-.166.416.82.82,0,0,1-.5.212.783.783,0,0,1,.185.116,1.722,1.722,0,0,1,.253.312l.4.639-.388-.006-.3-.487c-.089-.142-.162-.248-.22-.324a.6.6,0,0,0-.155-.155.384.384,0,0,0-.14-.064,1.481,1.481,0,0,0-.169-.015l-.357,0-.009,1.035Zm.324-1.293.659.008a1.1,1.1,0,0,0,.332-.04.366.366,0,0,0,.183-.14.386.386,0,0,0,.063-.208.358.358,0,0,0-.117-.273.559.559,0,0,0-.377-.107l-.735-.011Z" transform="translate(-9.392 -0.074)" fill="#2a3f77"/>
    <path id="Trazado_308" data-name="Trazado 308" d="M3.86,38.035a2.124,2.124,0,0,1-1.518-.573l-.072-.08.28-.465.131.136a1.716,1.716,0,0,0,1.174.442c.619,0,.973-.223.973-.613,0-.417-.382-.53-1.005-.683S2.41,35.855,2.41,34.991c0-.542.4-1.174,1.517-1.174a2.209,2.209,0,0,1,1.252.375l.1.071-.228.49-.141-.1a1.761,1.761,0,0,0-.98-.3c-.593,0-.946.235-.946.63,0,.419.386.534,1.013.688S5.4,36.017,5.4,36.866c0,.54-.4,1.169-1.54,1.169" transform="translate(-0.135 -2.012)" fill="#2a3f77"/>
    <path id="Trazado_309" data-name="Trazado 309" d="M8.364,38.093a1.569,1.569,0,0,1-1.633-1.611,1.527,1.527,0,1,1,3.051-.011c0,.015,0,.032,0,.05v.145l-.147.027H7.307a1.012,1.012,0,0,0,1.063.862,1.019,1.019,0,0,0,.813-.351l.108-.132.355.4-.078.095a1.535,1.535,0,0,1-1.2.524M7.317,36.188H9.2a.958.958,0,0,0-1.885,0" transform="translate(-0.4 -2.074)" fill="#2a3f77"/>
    <path id="Trazado_310" data-name="Trazado 310" d="M12,38.071h-.566V34.893h.555v.313a1.36,1.36,0,0,1,.956-.336h.145v.561h-.145a.462.462,0,0,1-.051,0h0c-.572,0-.891.362-.891.994Z" transform="translate(-0.68 -2.074)" fill="#2a3f77"/>
    <path id="Trazado_311" data-name="Trazado 311" d="M15.9,38.072h-.469L14,34.894h.61l1.058,2.375,1.068-2.375h.6Z" transform="translate(-0.833 -2.076)" fill="#2a3f77"/>
    <path id="Trazado_312" data-name="Trazado 312" d="M19.211,38h-.566V34.821h.566Zm-.283-3.592a.369.369,0,1,1,.371-.371.369.369,0,0,1-.371.371m0-.449a.083.083,0,0,0-.082.082c0,.087.164.088.164,0a.079.079,0,0,0-.082-.077" transform="translate(-1.104 -2.003)" fill="#2a3f77"/>
    <path id="Trazado_313" data-name="Trazado 313" d="M22.309,38.092a1.611,1.611,0,0,1,0-3.222,1.4,1.4,0,0,1,1.216.6l.077.116-.435.317-.086-.118a.916.916,0,0,0-.773-.371,1.074,1.074,0,0,0,0,2.146.916.916,0,0,0,.773-.372l.086-.119.435.318-.079.116a1.431,1.431,0,0,1-1.215.594" transform="translate(-1.232 -2.074)" fill="#2a3f77"/>
    <path id="Trazado_314" data-name="Trazado 314" d="M25.718,38h-.566V34.821h.566Zm-.283-3.592a.369.369,0,1,1,.371-.371.369.369,0,0,1-.371.371m0-.449a.083.083,0,0,0-.082.082c0,.087.164.088.164,0a.079.079,0,0,0-.082-.077" transform="translate(-1.491 -2.003)" fill="#2a3f77"/>
    <path id="Trazado_315" data-name="Trazado 315" d="M28.8,38.093a1.611,1.611,0,1,1,1.589-1.611A1.548,1.548,0,0,1,28.8,38.093m0-2.684a1.074,1.074,0,1,0,1.018,1.073A1,1,0,0,0,28.8,35.409" transform="translate(-1.619 -2.074)" fill="#2a3f77"/>
    <path id="Trazado_316" data-name="Trazado 316" d="M32.892,38.092a1.944,1.944,0,0,1-1.256-.409l-.085-.079.271-.471.134.112a1.526,1.526,0,0,0,.946.314c.708,0,.708-.3.708-.4,0-.243-.234-.313-.734-.405-.526-.1-1.181-.221-1.181-.951,0-.432.324-.936,1.24-.936a1.9,1.9,0,0,1,1.078.311l.1.077-.272.471-.131-.094a1.332,1.332,0,0,0-.783-.233c-.249,0-.669.052-.669.4,0,.261.242.335.756.433s1.159.22,1.159.924c0,.452-.337.936-1.284.936" transform="translate(-1.877 -2.074)" fill="#2a3f77"/>
    <path id="Trazado_317" data-name="Trazado 317" d="M38.642,39.145h-.566V34.893h.555v.387a1.471,1.471,0,0,1,1.04-.409,1.612,1.612,0,0,1,0,3.222,1.459,1.459,0,0,1-1.029-.4Zm1.012-3.736a1.074,1.074,0,1,0,1.023,1.073,1,1,0,0,0-1.023-1.073" transform="translate(-2.265 -2.074)" fill="#2a3f77"/>
    <path id="Trazado_318" data-name="Trazado 318" d="M43.8,38.092c-.72,0-1.185-.38-1.185-.969,0-.287.118-.953,1.224-.953h.846v-.087c0-.458-.233-.68-.713-.68a1.367,1.367,0,0,0-.9.327l-.121.111-.306-.44.1-.086a1.907,1.907,0,0,1,1.253-.446,1.129,1.129,0,0,1,1.257,1.224v1.977h-.555v-.262a1.392,1.392,0,0,1-.9.284m.044-1.416c-.594,0-.663.249-.663.436,0,.419.46.464.657.464a.842.842,0,0,0,.846-.531v-.369Z" transform="translate(-2.535 -2.074)" fill="#2a3f77"/>
    <path id="Trazado_319" data-name="Trazado 319" d="M47.737,38.071h-.566V34.893h.555v.313a1.36,1.36,0,0,1,.956-.336h.145v.561h-.145a.462.462,0,0,1-.051,0h0c-.572,0-.891.362-.891.994Z" transform="translate(-2.807 -2.074)" fill="#2a3f77"/>
    <path id="Trazado_320" data-name="Trazado 320" d="M51.2,38.092c-.72,0-1.185-.38-1.185-.969,0-.287.119-.953,1.224-.953h.846v-.087c0-.458-.233-.68-.713-.68a1.367,1.367,0,0,0-.9.327l-.121.111-.306-.44.1-.086a1.907,1.907,0,0,1,1.253-.446,1.129,1.129,0,0,1,1.257,1.224v1.977h-.555v-.262a1.392,1.392,0,0,1-.9.284m.044-1.416c-.594,0-.663.249-.663.436,0,.419.46.464.657.464a.842.842,0,0,0,.846-.531v-.369Z" transform="translate(-2.976 -2.074)" fill="#2a3f77"/>
    <path id="Trazado_321" data-name="Trazado 321" d="M63.115,38.093A1.611,1.611,0,1,1,64.7,36.482a1.548,1.548,0,0,1-1.589,1.611m0-2.684a1.074,1.074,0,1,0,1.018,1.073,1,1,0,0,0-1.018-1.073" transform="translate(-3.661 -2.074)" fill="#2a3f77"/>
    <rect id="Rectángulo_283" data-name="Rectángulo 283" width="0.566" height="4.396" transform="translate(62.414 31.6)" fill="#2a3f77"/>
    <path id="Trazado_322" data-name="Trazado 322" d="M70,38.093a1.611,1.611,0,1,1,1.589-1.611A1.548,1.548,0,0,1,70,38.093m0-2.684a1.074,1.074,0,1,0,1.018,1.073A1,1,0,0,0,70,35.409" transform="translate(-4.071 -2.074)" fill="#2a3f77"/>
    <path id="Trazado_323" data-name="Trazado 323" d="M78.289,38.071h-.566V36.26c0-.388-.132-.851-.757-.851a.87.87,0,0,0-.912.979v1.683h-.566V36.26c0-.388-.132-.851-.757-.851a.87.87,0,0,0-.912.979v1.683h-.566V34.893h.555v.323a1.387,1.387,0,0,1,.962-.345,1.186,1.186,0,0,1,1.071.533,1.408,1.408,0,0,1,1.153-.533,1.225,1.225,0,0,1,1.3,1.368Zm-2.546-2.15a1.562,1.562,0,0,1,.032.266c0-.04.01-.079.018-.118Z" transform="translate(-4.358 -2.074)" fill="#2a3f77"/>
    <path id="Trazado_324" data-name="Trazado 324" d="M81.959,38.018a1.471,1.471,0,0,1-1.04-.409v.387h-.555V33.6h.566v1.591a1.455,1.455,0,0,1,1.029-.4,1.612,1.612,0,0,1,0,3.222m-.017-2.684a1.074,1.074,0,1,0,1.023,1.073,1,1,0,0,0-1.023-1.073" transform="translate(-4.781 -1.999)" fill="#2a3f77"/>
    <path id="Trazado_325" data-name="Trazado 325" d="M85.749,38h-.566V34.821h.566Zm-.283-3.592a.369.369,0,1,1,.372-.371.369.369,0,0,1-.372.371m0-.449a.083.083,0,0,0-.082.082c0,.087.164.088.164,0a.079.079,0,0,0-.082-.077" transform="translate(-5.063 -2.003)" fill="#2a3f77"/>
    <path id="Trazado_326" data-name="Trazado 326" d="M88.485,38.092c-.72,0-1.185-.38-1.185-.969,0-.287.119-.953,1.224-.953h.846v-.087c0-.458-.232-.68-.713-.68a1.363,1.363,0,0,0-.9.327l-.122.111-.306-.44.1-.086a1.907,1.907,0,0,1,1.253-.446,1.129,1.129,0,0,1,1.257,1.224v1.977H89.38v-.262a1.392,1.392,0,0,1-.9.284m.044-1.416c-.594,0-.663.249-.663.436,0,.419.46.464.657.464a.842.842,0,0,0,.846-.531v-.369Z" transform="translate(-5.194 -2.074)" fill="#2a3f77"/>
    <path id="Trazado_327" data-name="Trazado 327" d="M94.733,38.071h-.566V36.26c0-.557-.273-.851-.79-.851a.887.887,0,0,0-.952.978v1.683h-.566V34.893h.556v.333a1.447,1.447,0,0,1,1-.356,1.235,1.235,0,0,1,1.318,1.367Z" transform="translate(-5.465 -2.074)" fill="#2a3f77"/>
    <path id="Trazado_328" data-name="Trazado 328" d="M97.931,38.093a1.611,1.611,0,1,1,1.589-1.611,1.548,1.548,0,0,1-1.589,1.611m0-2.684a1.074,1.074,0,1,0,1.018,1.073,1,1,0,0,0-1.018-1.073" transform="translate(-5.732 -2.074)" fill="#2a3f77"/>
    <path id="Trazado_329" data-name="Trazado 329" d="M102.024,38.092a1.943,1.943,0,0,1-1.255-.409l-.085-.079.271-.471.133.112a1.534,1.534,0,0,0,.947.314c.707,0,.707-.3.707-.4,0-.243-.234-.313-.733-.405-.527-.1-1.182-.221-1.182-.951,0-.432.325-.936,1.241-.936a1.9,1.9,0,0,1,1.078.311l.1.077-.271.471-.131-.094a1.334,1.334,0,0,0-.783-.233c-.249,0-.669.052-.669.4,0,.261.242.335.755.433s1.16.22,1.16.924c0,.452-.338.936-1.285.936" transform="translate(-5.991 -2.074)" fill="#2a3f77"/>
    <path id="Trazado_330" data-name="Trazado 330" d="M108.507,38.093a1.569,1.569,0,0,1-1.633-1.611,1.527,1.527,0,1,1,3.051-.011c0,.015,0,.032,0,.05v.145l-.147.027H107.45a1.1,1.1,0,0,0,1.875.511l.108-.132.355.4-.079.095a1.532,1.532,0,0,1-1.2.524m-1.047-1.905h1.885a.958.958,0,0,0-1.885,0" transform="translate(-6.359 -2.074)" fill="#2a3f77"/>
    <path id="Trazado_331" data-name="Trazado 331" d="M114.448,38.071h-.567V36.26c0-.557-.273-.851-.789-.851a.887.887,0,0,0-.953.978v1.683h-.566V34.893h.556v.333a1.45,1.45,0,0,1,1-.356,1.235,1.235,0,0,1,1.318,1.367Z" transform="translate(-6.638 -2.074)" fill="#2a3f77"/>
    <path id="Trazado_332" data-name="Trazado 332" d="M120.049,38.093a1.569,1.569,0,0,1-1.633-1.611,1.527,1.527,0,1,1,3.051-.011c0,.015,0,.032,0,.05v.145l-.147.027h-2.325a1.1,1.1,0,0,0,1.875.511l.108-.132.355.4-.079.095a1.532,1.532,0,0,1-1.2.524M119,36.188h1.885a.958.958,0,0,0-1.885,0" transform="translate(-7.045 -2.074)" fill="#2a3f77"/>
    <rect id="Rectángulo_284" data-name="Rectángulo 284" width="0.566" height="4.396" transform="translate(115.791 31.6)" fill="#2a3f77"/>
    <path id="Trazado_333" data-name="Trazado 333" d="M129.168,38.093a1.569,1.569,0,0,1-1.633-1.611,1.527,1.527,0,1,1,3.051-.011.5.5,0,0,1,0,.05v.145l-.147.027h-2.325a1.1,1.1,0,0,0,1.875.511l.108-.132.355.4-.079.095a1.532,1.532,0,0,1-1.2.524m-1.047-1.905h1.885a.958.958,0,0,0-1.885,0" transform="translate(-7.588 -2.074)" fill="#2a3f77"/>
    <path id="Trazado_334" data-name="Trazado 334" d="M134.713,38.072h-.694l-.92-1.2-.92,1.2h-.68l1.257-1.633-1.2-1.545h.682L133.1,36l.859-1.109h.676l-1.2,1.544Z" transform="translate(-7.824 -2.076)" fill="#2a3f77"/>
    <path id="Trazado_335" data-name="Trazado 335" d="M137.01,38.054a.864.864,0,0,1-.932-.93V35.381h-.529v-.528h.529v-.631h.567v.631h.918v.528h-.918V37.1c0,.387.223.431.391.431a.525.525,0,0,0,.353-.122l.129-.119.267.444-.084.08a1.015,1.015,0,0,1-.691.245" transform="translate(-8.065 -2.036)" fill="#2a3f77"/>
    <path id="Trazado_336" data-name="Trazado 336" d="M140.434,38.093a1.57,1.57,0,0,1-1.634-1.611,1.528,1.528,0,1,1,3.052-.011c0,.015,0,.032,0,.051v.145l-.147.026h-2.325a1.1,1.1,0,0,0,1.875.511l.107-.132.356.4-.079.095a1.532,1.532,0,0,1-1.2.524m-1.047-1.905h1.885a.958.958,0,0,0-1.885,0" transform="translate(-8.258 -2.074)" fill="#2a3f77"/>
    <path id="Trazado_337" data-name="Trazado 337" d="M144.067,38.071H143.5V34.893h.556v.313a1.356,1.356,0,0,1,.956-.336h.145v.561h-.145a.463.463,0,0,1-.05,0h0c-.572,0-.891.362-.891.994Z" transform="translate(-8.538 -2.074)" fill="#2a3f77"/>
    <path id="Trazado_338" data-name="Trazado 338" d="M147.18,38h-.566V34.821h.566Zm-.283-3.592a.369.369,0,1,1,.372-.371.369.369,0,0,1-.372.371m0-.449a.083.083,0,0,0-.082.082c0,.087.164.088.164,0a.079.079,0,0,0-.082-.077" transform="translate(-8.718 -2.003)" fill="#2a3f77"/>
    <path id="Trazado_339" data-name="Trazado 339" d="M150.261,38.093a1.611,1.611,0,1,1,1.589-1.611,1.548,1.548,0,0,1-1.589,1.611m0-2.684a1.074,1.074,0,1,0,1.018,1.073,1,1,0,0,0-1.018-1.073" transform="translate(-8.846 -2.074)" fill="#2a3f77"/>
    <path id="Trazado_340" data-name="Trazado 340" d="M154.074,38.071h-.566V34.893h.555v.313a1.36,1.36,0,0,1,.956-.336h.145v.561h-.145a.462.462,0,0,1-.051,0h0c-.572,0-.891.362-.891.994Z" transform="translate(-9.133 -2.074)" fill="#2a3f77"/>
    <path id="Trazado_341" data-name="Trazado 341" d="M58.835,38.061a1.611,1.611,0,0,1,0-3.222,1.4,1.4,0,0,1,1.216.6l.077.116-.435.317-.086-.118a.916.916,0,0,0-.773-.372,1.074,1.074,0,0,0,0,2.146.916.916,0,0,0,.773-.371l.086-.119.435.318-.079.116a1.431,1.431,0,0,1-1.215.594" transform="translate(-3.405 -2.072)" fill="#2a3f77"/>
  </g>
</svg>
